<?xml version="1.0" encoding="UTF-8" standalone="no"?><!-- Generator: Gravit.io --><svg xmlns="http://www.w3.org/2000/svg" xmlns:xlink="http://www.w3.org/1999/xlink" style="isolation:isolate" viewBox="-20 40 729 1868" width="729pt" height="1868pt"><defs><clipPath id="_clipPath_WiTP4WDv3OVkv1YjbWycjlYyAqFKio56"><rect x="-20" y="40" width="729" height="1868"/></clipPath></defs><g clip-path="url(#_clipPath_WiTP4WDv3OVkv1YjbWycjlYyAqFKio56)"><rect x="-20" y="40" width="729" height="1868" style="fill:rgb(116,116,116)" fill-opacity="0"/><g opacity="0"><rect x="-20" y="40" width="729" height="1868" transform="matrix(1,0,0,1,0,0)" fill="rgb(235,235,235)"/></g><path d=" M 163 275 C 250.296 249.844 310.983 226.197 383 204 L 629 158 C 634.552 251.081 634.562 372.091 629 503 L 491 578.746 C 367.028 570.145 299.681 550.368 201 554 L 163 275 Z " fill="rgb(255,153,0)"/><path d=" M 162 918 L 179 917 L 179 889 L 212 883 L 208 853 L 364 858 L 578 850 C 573.433 952.968 564.453 1055.988 569 1177 L 530 1173 L 530 1211 L 498 1204 L 498 1228.746 C 374.028 1220.145 306.681 1200.368 208 1204 L 162 918 Z " fill="rgb(255,153,0)"/><path d=" M 195.435 1511 L 505.435 1511 L 520.435 1831.746 Q 358.4 1811.321 230.435 1807 L 195.435 1511 Z " fill="rgb(255,153,0)"/><g opacity="0.38"><path d=" M 477.581 249 C 371.385 245.348 262.814 254.025 151 275 L 184.471 511.376 C 145.124 525.509 91.977 547.727 25 578 Q 329.248 585.273 499 595 C 490.036 483.726 475.573 340.403 477.581 249 Z " fill="rgb(0,0,0)"/></g><g opacity="0.38"><path d=" M 502.587 1228.746 L 536 1219.746 L 530 887 L 461 887 Q 469.83 898.57 467.323 898.515 Q 378.133 896.573 194.142 918.63 L 194.142 908 L 246 894 L 213 889 L 219 882 L 278 879 L 211 852 L 211 882 L 176 885 L 184 914 L 158 925 L 197 1177 L 32 1228 Q 307.1 1236.297 513 1246 Q 507.077 1236.481 502.587 1228.746 Z " fill="rgb(0,0,0)"/></g><g opacity="0.38"><path d=" M 505.435 1511 C 437.374 1518.114 328.717 1515.457 179.435 1503 L 230.435 1810 L 54.435 1831 C 202.588 1827.922 362.942 1833.942 535.435 1849 C 520.717 1805.688 510.727 1693.031 505.435 1511 Z " fill="rgb(0,0,0)"/></g><path d=" M 144 270 L 372 200 C 437.961 182.354 527.638 164.697 641 147 C 644.906 253.085 643.249 377.762 636 503 Q 566.446 542.666 499 595 L 491 567.746 C 540.25 534.773 584.26 507.535 623 486 Q 630.299 369.15 618 174 C 523.728 186.8 439.738 199.81 372 215 L 179 270 L 144 270 Z " fill="rgb(0,0,0)"/><path d=" M 474 245 C 525.806 225.251 575.203 198.595 615 165 L 641 147 L 629 182 C 584.383 215.175 538.366 246.518 487 264 Q 489.1 360.849 503 575.746 L 499 595 L 482 569.746 Q 457.067 362.849 460.056 267 C 373.698 259.889 285.329 258.909 163 284 L 144 270 L 175 264 C 293.923 238.273 378.938 234.115 474 245 Z " fill="rgb(0,0,0)"/><path d=" M 513.942 1471.363 L 479.793 1459.039 L 470.29 1434.82 L 513.942 1471.363 Z " fill="rgb(0,0,0)"/><path d=" M 533.63 1471.415 L 567.679 1426.988 L 583.435 1431 L 533.63 1471.415 Z " fill="rgb(0,0,0)"/><path d=" M 493.918 1421.366 Q 511.96 1472.278 525.528 1467.969 Q 539.096 1463.661 545.49 1414.293 Q 532.14 1453.137 523.431 1455.664 Q 514.723 1458.192 493.918 1421.366 Z " fill="rgb(0,0,0)"/><path d=" M 559.485 1527.65 Q 529.877 1491.292 540.263 1482.843 Q 550.649 1474.394 591.832 1491.409 Q 554.57 1483.953 548.086 1489.482 Q 541.601 1495.011 559.485 1527.65 Z " fill="rgb(0,0,0)"/><path d=" M 606 1468.058 L 535.893 1476.409 L 587.823 1458.838 L 606 1468.058 Z " fill="rgb(0,0,0)"/><path d=" M 501 899 C 494.746 1012.746 498.787 1055.953 513 1246 L 494 1236 L 489 1219.746 Q 464.067 1012.849 467.056 917 C 380.698 909.889 292.329 908.909 170 934 L 151 920 L 182 914 C 300.923 888.273 405.938 888.115 501 899 Z " fill="rgb(0,0,0)"/><path d=" M 523.435 1502 C 517.182 1615.746 521.222 1658.953 535.435 1849 L 516.435 1839 L 511.435 1822.746 Q 486.502 1615.849 489.491 1520 Q 371.031 1524.626 195.435 1523 L 172.435 1498 Q 415.294 1506.084 523.435 1502 Z " fill="rgb(0,0,0)"/><path d=" M 481 906 L 501 899 L 481 892 C 495.095 890.143 510.438 889.82 527 891 L 539 885 L 517 878 Q 543.042 870.732 578 862 L 585 846 L 574 851 Q 530.997 864.161 489 875 L 507 882 C 496.085 884.63 477.429 885.64 451 885 L 481 906 Z " fill="rgb(0,0,0)"/><path d=" M 190 564 Q 290.755 565.336 499 595 L 497 568.746 C 386.711 555.048 289.721 545.81 206 541 C 202.56 450.492 191.57 357.502 179 270 L 144 270 C 165.246 360.918 175.923 464.928 190 564 Z " fill="rgb(0,0,0)"/><path d=" M 197 1214 Q 297.755 1215.336 513 1246 L 504 1218.746 C 390.577 1202.938 293.587 1193.699 213 1191 C 209.56 1100.492 198.57 1007.502 186 920 L 151 920 C 172.246 1010.918 182.923 1114.928 197 1214 Z " fill="rgb(0,0,0)"/><path d=" M 219.435 1817 Q 320.191 1818.336 535.435 1849 L 526.435 1821.746 C 413.013 1805.938 320.023 1798.699 239.435 1796 Q 227.84 1673.429 207.435 1515 L 172.435 1498 Q 205.358 1717.928 219.435 1817 Z " fill="rgb(0,0,0)"/><path d=" M 193 887.998 L 169 873 L 180 928.998 L 199 917.998 L 193 887.998 Z " fill="rgb(0,0,0)"/><path d=" M 223 857 L 202 850 L 210 885 L 230 881 L 223 857 Z " fill="rgb(0,0,0)"/><path d=" M 585 846 C 453.684 851.41 268.821 853.667 202 850 L 244 863 C 238.818 868.986 467.414 865.155 570 855 L 585 846 Z " fill="rgb(0,0,0)"/><path d=" M 489 875 L 509.009 879.002 L 539 885 C 531.794 945.234 530.804 1056.826 536 1219.746 L 504 1214 L 504 1187 L 523 1189 C 517.612 1037.66 517.632 937.013 523 887 L 489 875 Z " fill="rgb(0,0,0)"/><path d=" M 168 938 L 151 920 C 180.678 906.629 207.355 898.305 229 895 Q 211.655 891.143 190 891 L 169 873 Q 217.27 877.481 254 875.002 L 221 862 L 202 850 L 241 857 L 292 882 L 224 885 Q 245.193 888.839 264 891 C 225.715 901.539 195.058 910.882 184 917 L 168 938 Z " fill="rgb(0,0,0)"/><path d=" M 555 849 L 585 846 C 574.959 958 571.645 1074.02 575 1184 Q 553.054 1185.617 530 1189 L 531 1160 Q 547.687 1158.451 560.398 1158 C 555.261 1054.258 558.471 949.935 570 855 L 555 849 Z " fill="rgb(0,0,0)"/><path d=" M 460.5 833.923 L 614.5 832.923 L 609.5 865.923 L 634.5 815.923 L 460.5 833.923 Z " fill="rgb(0,0,0)"/><g opacity="0.2"><path d=" M 251 808 L 245 779 L 296 793 L 257 788 L 263 810 L 251 808 Z " fill="rgb(0,0,0)"/></g><g opacity="0.51"><path d=" M 488 811 L 642 810 L 637 843 L 662 793 L 488 811 Z " fill="rgb(0,0,0)"/></g><g opacity="0.2"><path d=" M 514 790 L 668 789 L 663 822 L 688 772 L 514 790 Z " fill="rgb(0,0,0)"/></g><g opacity="0.5"><path d=" M 240 820 L 234 791 L 290 797 L 246 800 L 252 822 L 240 820 Z " fill="rgb(0,0,0)"/></g><path d=" M 231 832 L 225 803 L 286 810 L 237 812 L 243 834 L 231 832 Z " fill="rgb(0,0,0)"/></g></svg>