<?xml version="1.0" encoding="UTF-8" standalone="no"?><!-- Generator: Gravit.io --><svg xmlns="http://www.w3.org/2000/svg" xmlns:xlink="http://www.w3.org/1999/xlink" style="isolation:isolate" viewBox="-9.5 -59 729 1868" width="729pt" height="1868pt"><defs><clipPath id="_clipPath_MZZpbGeHQKf7gTJxZFYl5Q6NZIBMQipz"><rect x="-9.5" y="-59" width="729" height="1868"/></clipPath></defs><g clip-path="url(#_clipPath_MZZpbGeHQKf7gTJxZFYl5Q6NZIBMQipz)"><rect x="-9.5" y="-59" width="729" height="1868" style="fill:rgb(116,116,116)" fill-opacity="0"/><g opacity="0"><rect x="-9.5" y="-59" width="729" height="1868" transform="matrix(1,0,0,1,0,0)" fill="rgb(235,235,235)"/></g><path d=" M 143 275 C 230.296 249.844 290.983 226.197 363 204 L 609 158 C 614.552 251.081 614.562 372.091 609 503 L 471 578.746 C 347.028 570.145 279.681 550.368 181 554 L 143 275 Z " fill="rgb(30,120,30)"/><g><path d=" M 367.837 216.053 C 353.058 220.288 337.317 224.734 320.685 229.377 C 305.483 230.131 290.255 231.001 275 232 L 263 236 C 277.822 234.501 293.705 233.225 310.674 232.178 C 285.931 239.054 259.395 246.323 231 254 L 239 254 L 239 254 C 268.096 246.106 295.298 238.633 320.602 231.582 C 337.122 230.668 354.583 229.952 373.04 229.446 C 357.383 234.235 341.021 239.088 324 244 L 339 244 L 339 244 C 351.848 240.122 367.507 235.166 385.996 229.121 C 423.227 228.284 464.24 228.246 509 229 L 516 227 C 475.165 225.989 434.115 225.933 392.847 226.865 C 408.892 221.593 426.971 215.538 447.261 208.632 C 485.218 205.4 521.114 202.86 555 201 L 561 198 C 529.28 199.703 494.519 202.172 456.641 205.43 C 480.198 197.404 506.772 188.216 536 178 L 522 178 C 499.164 187.223 473.366 196.717 444.54 206.484 C 427.554 207.974 409.888 209.635 391.528 211.474 C 414.651 204.807 435.407 198.665 454 193 L 446 193 C 426.503 198.974 404.425 205.519 379.625 212.664 C 360.44 214.6 340.543 216.718 320 219 L 312 222 C 331.028 219.879 349.65 217.893 367.837 216.053 Z  M 379.812 214.859 C 364.105 219.36 347.483 224.063 329.898 228.979 C 346.822 228.19 363.705 227.583 380.557 227.125 C 399.738 221.221 417.898 215.408 435.001 209.691 C 417.108 211.245 398.716 212.967 379.812 214.859 Z " fill-rule="evenodd" fill="rgb(255,213,149)" fill-opacity="0.59"/><path d=" M 342.629 463.019 C 340.043 432.238 337.952 401.672 336.341 371.318 C 378.506 370.727 419.324 369.61 458.802 367.965 L 459.503 361 C 418.821 363.599 377.676 365.34 336.069 366.219 C 334.241 330.801 333.069 295.671 332.549 260.828 L 332.549 260.828 L 325.661 262.075 C 326.914 295.857 328.629 330.586 330.832 366.319 C 301.333 366.903 271.597 367.046 241.629 366.753 C 237.389 330.756 232.841 295.858 228 262 L 221 262 L 221 262 C 226.714 296.495 231.834 331.391 236.356 366.692 C 210.61 366.41 184.69 365.799 158.601 364.87 L 158 370.84 C 184.812 371.324 211.162 371.628 236.993 371.73 C 240.579 400.054 243.782 428.636 246.597 457.478 C 219.618 456.137 192.067 454.984 164 454 L 164.284 459.993 C 192.093 460.479 219.691 461.316 247.075 462.508 C 250.212 495.007 252.849 527.841 255 561 L 261 561 C 258.234 527.481 255.261 494.713 252.07 462.725 C 280.967 464.025 309.628 465.715 338.047 467.805 C 340.529 498.598 343.334 530.062 346.451 562.172 L 352.355 561.103 C 348.774 529.914 345.672 498.933 343.064 468.168 C 384.055 471.239 424.554 475.123 464.557 479.819 L 464.226 472.827 C 425.053 469.106 384.523 465.836 342.629 463.019 Z  M 337.636 462.675 C 335.142 431.566 332.981 401.145 331.145 371.395 C 302.143 371.765 272.524 371.894 242.219 371.755 C 245.518 399.765 248.636 428.417 251.574 457.719 C 280.889 459.163 309.555 460.822 337.636 462.675 Z " fill-rule="evenodd" fill="rgb(255,213,149)" fill-opacity="0.59"/><path d=" M 576.037 408.652 C 574.188 379.67 572.758 350.882 571.747 322.288 Q 594.202 311.603 616.94 299.513 L 615.458 291.472 Q 594.497 303.699 571.497 314.964 C 570.271 277.707 569.758 240.78 569.957 204.185 L 569.957 204.185 L 563.045 205.292 C 563.652 241.57 564.768 278.952 566.394 317.44 Q 545.548 327.456 523.06 336.698 C 521.01 303.103 518.653 270.398 515.988 238.583 L 509 238.174 L 509 238.174 C 512.523 271.384 515.485 304.929 517.884 338.807 Q 488.67 350.6 456.73 361.107 L 458 368 Q 487.92 358.263 518.375 345.864 C 520.463 376.382 522.095 407.169 523.27 438.225 Q 495.264 454.77 464.557 474.546 L 467.419 479.819 Q 496.687 461.888 523.567 446.353 C 524.642 476.86 525.278 507.626 525.474 538.649 L 531.464 539 C 530.688 506.495 529.677 474.678 528.43 443.551 Q 550.93 430.624 571.73 419.405 C 573.479 447.645 575.477 476.426 577.721 505.749 L 583.646 504.8 C 580.863 475.275 578.504 445.943 576.568 416.806 Q 596.587 406.097 615 397 L 611.661 390.848 Q 594.572 398.885 576.037 408.652 Z  M 571.228 411.202 C 569.449 381.766 567.941 352.923 566.705 324.671 Q 544.963 334.879 523.486 343.766 C 525.263 373.608 526.799 404.148 528.097 435.386 Q 550.545 422.238 571.228 411.202 Z " fill-rule="evenodd" fill="rgb(255,213,149)" fill-opacity="0.59"/></g><path d=" M 166 874 L 183 873 L 183 845 L 216 839 L 212 809 L 368 814 L 582 806 C 577.433 908.968 568.453 1011.988 573 1133 L 534 1129 L 534 1167 L 502 1160 L 502 1184.746 C 378.028 1176.145 310.681 1156.368 212 1160 L 166 874 Z " fill="rgb(30,120,30)"/><g><path d=" M 377.629 1069.019 C 375.043 1038.238 372.952 1007.672 371.341 977.318 C 413.506 976.727 454.324 975.61 493.802 973.965 L 494.503 967 C 453.821 969.599 412.676 971.34 371.069 972.219 C 369.241 936.801 368.069 901.671 367.549 866.828 L 367.549 866.828 L 360.661 868.075 C 361.914 901.857 363.629 936.586 365.832 972.319 C 336.333 972.903 306.597 973.046 276.629 972.753 C 272.389 936.756 267.841 901.858 263 868 L 256 868 L 256 868 C 261.714 902.495 266.834 937.391 271.356 972.692 C 245.61 972.41 219.69 971.799 193.601 970.87 L 193 976.84 C 219.812 977.324 246.162 977.628 271.993 977.73 C 275.579 1006.054 278.782 1034.636 281.597 1063.478 C 254.618 1062.137 227.067 1060.984 199 1060 L 199.284 1065.993 C 227.093 1066.479 254.691 1067.316 282.075 1068.508 C 285.212 1101.007 287.849 1133.841 290 1167 L 296 1167 C 293.234 1133.481 290.261 1100.713 287.07 1068.725 C 315.967 1070.025 344.628 1071.715 373.047 1073.805 C 375.529 1104.598 378.334 1136.062 381.451 1168.172 L 387.355 1167.103 C 383.774 1135.914 380.672 1104.933 378.064 1074.168 C 419.055 1077.239 459.554 1081.123 499.557 1085.819 L 499.226 1078.827 C 460.053 1075.106 419.523 1071.836 377.629 1069.019 Z  M 372.636 1068.675 C 370.142 1037.566 367.981 1007.145 366.145 977.395 C 337.143 977.765 307.524 977.894 277.219 977.755 C 280.518 1005.765 283.636 1034.417 286.574 1063.719 C 315.889 1065.163 344.555 1066.822 372.636 1068.675 Z " fill-rule="evenodd" fill="rgb(255,213,149)" fill-opacity="0.59"/><path d=" M 573 931 L 531 936 L 531 951 L 485 954 L 492 960 L 530.944 963 L 534.944 941 L 573.944 940 L 573 931 Z " fill="rgb(255,213,149)" fill-opacity="0.59"/><path d=" M 493.802 1065 L 531.944 1072 L 531.944 1049 L 569.944 1047 L 568.944 1039 L 526.944 1039 L 526.944 1061 L 495.944 1056 L 493.802 1065 Z " fill="rgb(255,213,149)" fill-opacity="0.59"/><path d=" M 335.529 827.711 C 311.538 828.174 286.766 828.475 264.944 828 L 271.944 831 Q 297.587 830.253 319.61 829.721 L 319.61 829.721 C 313.225 832.239 310.598 835.491 311.771 839.535 C 289.396 841.93 268.182 844.7 249 845 L 252.944 848 C 261.335 847.853 278.958 846.262 298.867 844.445 L 252.944 862 L 267.23 859.769 L 311.198 843.322 L 311.198 843.322 C 334.357 841.228 358.631 839.16 374.083 838.863 C 368.119 843 363.656 848.228 360.661 854.515 L 370.944 854.515 L 370.944 854.515 C 374.427 847.199 378.652 841.997 383.605 838.891 L 383.605 838.891 C 415.79 839.549 448.128 842.387 465 845 L 465 845 L 464.222 843.202 C 446.579 840.852 428.345 839.104 409.967 837.824 C 409.083 833.245 411.805 829.864 417.102 828.443 Q 431.278 828.558 439.944 829 Q 471.558 830.612 529.944 825 L 535 821.923 L 535 821.923 L 535 821.923 L 535 821.923 C 508.068 823.994 479.981 828.846 450.994 828.154 C 464.353 824.329 475.145 819.823 485 814 L 474.944 814 C 467.718 818.759 455.902 823.279 439.52 827.588 C 438.383 827.494 437.246 827.395 436.108 827.285 C 419.506 825.69 382.198 826.786 341.839 827.587 C 337.719 825.1 338.724 822.241 344.83 819 L 335.896 819 C 331.257 822.511 331.136 825.418 335.529 827.711 Z  M 326.061 829.568 Q 377.119 828.379 407.734 828.404 C 404.166 830.212 400.277 833.28 396.849 836.991 C 391.363 836.657 385.871 836.375 380.387 836.127 C 359.51 835.183 338.76 836.718 318.79 838.762 C 319.351 834.052 321.764 830.972 326.061 829.568 L 326.061 829.568 Z " fill-rule="evenodd" fill="rgb(255,213,149)" fill-opacity="0.59"/></g><path d=" M 205.218 1410.707 L 515.218 1410.707 L 530.218 1731.453 Q 368.182 1711.028 240.218 1706.707 L 205.218 1410.707 Z " fill="rgb(30,120,30)"/><g opacity="0.38"><path d=" M 515.218 1410.707 C 447.156 1417.821 338.5 1415.164 189.218 1402.707 L 240.218 1709.707 L 64.218 1730.707 C 212.371 1727.628 372.724 1733.648 545.218 1748.707 C 530.499 1705.395 520.509 1592.738 515.218 1410.707 Z " fill="rgb(0,0,0)"/></g><g opacity="0.38"><path d=" M 506.587 1184.746 L 540 1175.746 L 534 843 L 465 843 Q 473.83 854.57 471.323 854.515 Q 382.133 852.573 198.142 874.63 L 198.142 864 L 250 850 L 217 845 L 223 838 L 282 835 L 215 808 L 215 838 L 180 841 L 188 870 L 162 881 L 201 1133 L 36 1184 Q 311.1 1192.297 517 1202 Q 511.077 1192.481 506.587 1184.746 Z " fill="rgb(0,0,0)"/></g><g opacity="0.38"><path d=" M 457.581 249 C 351.385 245.348 242.814 254.025 131 275 L 164.471 511.376 C 125.124 525.509 71.977 547.727 5 578 Q 309.248 585.273 479 595 C 470.036 483.726 455.573 340.403 457.581 249 Z " fill="rgb(0,0,0)"/></g><path d=" M 407.558 1616.226 C 404.972 1585.445 402.881 1554.879 401.27 1524.525 C 443.435 1523.934 484.253 1522.817 523.731 1521.172 L 524.432 1514.207 C 483.75 1516.805 442.605 1518.547 400.998 1519.426 C 399.17 1484.008 397.998 1448.878 397.478 1414.035 L 397.478 1414.035 L 390.59 1415.282 C 391.843 1449.063 393.559 1483.793 395.761 1519.526 C 366.262 1520.11 336.526 1520.253 306.558 1519.96 C 302.318 1483.962 297.77 1449.065 292.929 1415.207 L 285.929 1415.207 L 285.929 1415.207 C 291.643 1449.702 296.764 1484.598 301.285 1519.899 C 275.539 1519.616 249.619 1519.006 223.53 1518.077 L 222.929 1524.047 C 249.741 1524.531 276.091 1524.835 301.922 1524.937 C 305.509 1553.261 308.711 1581.843 311.526 1610.685 C 284.547 1609.344 256.996 1608.19 228.929 1607.207 L 229.213 1613.2 C 257.022 1613.686 284.62 1614.523 312.004 1615.715 C 315.141 1648.214 317.778 1681.048 319.929 1714.207 L 325.929 1714.207 C 323.163 1680.688 320.19 1647.92 316.999 1615.931 C 345.896 1617.231 374.557 1618.922 402.976 1621.012 C 405.458 1651.805 408.263 1683.269 411.38 1715.378 L 417.284 1714.31 C 413.703 1683.121 410.601 1652.14 407.993 1621.374 C 448.984 1624.446 489.483 1628.33 529.486 1633.026 L 529.155 1626.034 C 489.982 1622.312 449.452 1619.043 407.558 1616.226 Z  M 402.565 1615.881 C 400.071 1584.773 397.91 1554.351 396.074 1524.602 C 367.072 1524.972 337.453 1525.1 307.148 1524.962 C 310.447 1552.971 313.565 1581.624 316.503 1610.926 C 345.819 1612.37 374.484 1614.029 402.565 1615.881 Z " fill-rule="evenodd" fill="rgb(255,213,149)" fill-opacity="0.59"/><path d=" M 124 270 L 352 200 C 417.961 182.354 507.638 164.697 621 147 C 624.906 253.085 623.249 377.762 616 503 Q 546.446 542.666 479 595 L 471 567.746 C 520.25 534.773 564.26 507.535 603 486 Q 610.299 369.15 598 174 C 503.728 186.8 419.738 199.81 352 215 L 159 270 L 124 270 Z " fill="rgb(0,0,0)"/><path d=" M 454 245 C 505.806 225.251 555.203 198.595 595 165 L 621 147 L 609 182 C 564.383 215.175 518.366 246.518 467 264 Q 469.1 360.849 483 575.746 L 479 595 L 462 569.746 Q 437.067 362.849 440.056 267 C 353.698 259.889 265.329 258.909 143 284 L 124 270 L 155 264 C 273.923 238.273 358.938 234.115 454 245 Z " fill="rgb(0,0,0)"/><path d=" M 523.724 1371.069 L 489.576 1358.746 L 480.072 1334.527 L 523.724 1371.069 Z " fill="rgb(0,0,0)"/><path d=" M 543.412 1371.122 L 577.461 1326.695 L 593.218 1330.707 L 543.412 1371.122 Z " fill="rgb(0,0,0)"/><path d=" M 503.7 1321.073 Q 521.742 1371.985 535.31 1367.676 Q 548.878 1363.368 555.272 1314 Q 541.923 1352.843 533.214 1355.371 Q 524.505 1357.899 503.7 1321.073 Z " fill="rgb(0,0,0)"/><path d=" M 569.268 1427.356 Q 539.659 1390.999 550.045 1382.55 Q 560.432 1374.101 601.614 1391.115 Q 564.352 1383.66 557.868 1389.189 Q 551.384 1394.717 569.268 1427.356 Z " fill="rgb(0,0,0)"/><path d=" M 615.782 1367.765 L 545.675 1376.116 L 597.605 1358.545 L 615.782 1367.765 Z " fill="rgb(0,0,0)"/><path d=" M 505 855 C 498.746 968.746 502.787 1011.953 517 1202 L 498 1192 L 493 1175.746 Q 468.067 968.849 471.056 873 C 384.698 865.889 296.329 864.909 174 890 L 155 876 L 186 870 C 304.923 844.273 409.938 844.115 505 855 Z " fill="rgb(0,0,0)"/><path d=" M 533.218 1401.707 C 526.964 1515.453 531.005 1558.66 545.218 1748.707 L 526.218 1738.707 L 521.218 1722.453 Q 496.284 1515.556 499.273 1419.707 Q 380.813 1424.333 205.218 1422.707 L 182.218 1397.707 Q 425.077 1405.791 533.218 1401.707 Z " fill="rgb(0,0,0)"/><path d=" M 485 862 L 505 855 L 485 848 C 499.095 846.143 514.438 845.82 531 847 L 543 841 L 521 834 Q 547.042 826.732 582 818 L 589 802 L 578 807 Q 534.997 820.162 493 831 L 511 838 C 500.085 840.63 481.429 841.64 455 841 L 485 862 Z " fill="rgb(0,0,0)"/><path d=" M 170 564 Q 270.755 565.336 479 595 L 477 568.746 C 366.711 555.048 269.721 545.81 186 541 C 182.56 450.492 171.57 357.502 159 270 L 124 270 C 145.246 360.918 155.923 464.928 170 564 Z " fill="rgb(0,0,0)"/><path d=" M 201 1170 Q 301.755 1171.336 517 1202 L 508 1174.746 C 394.577 1158.938 297.587 1149.699 217 1147 C 213.56 1056.492 202.57 963.502 190 876 L 155 876 C 176.246 966.918 186.923 1070.928 201 1170 Z " fill="rgb(0,0,0)"/><path d=" M 229.218 1716.707 Q 329.973 1718.043 545.218 1748.707 L 536.218 1721.453 C 422.795 1705.645 329.805 1698.406 249.218 1695.707 Q 237.623 1573.135 217.218 1414.707 L 182.218 1397.707 Q 215.141 1617.634 229.218 1716.707 Z " fill="rgb(0,0,0)"/><path d=" M 197 843.998 L 173 829 L 184 884.998 L 203 873.998 L 197 843.998 Z " fill="rgb(0,0,0)"/><path d=" M 227 813 L 206 806 L 214 841 L 234 837 L 227 813 Z " fill="rgb(0,0,0)"/><path d=" M 589 802 C 457.684 807.41 272.821 809.667 206 806 L 248 819 C 242.818 824.986 471.414 821.155 574 811 L 589 802 Z " fill="rgb(0,0,0)"/><path d=" M 493 831 L 513.009 835.002 L 543 841 C 535.794 901.234 534.804 1012.826 540 1175.746 L 508 1170 L 508 1143 L 527 1145 C 521.612 993.66 521.632 893.013 527 843 L 493 831 Z " fill="rgb(0,0,0)"/><path d=" M 172 894 L 155 876 C 184.678 862.629 211.355 854.305 233 851 Q 215.655 847.143 194 847 L 173 829 Q 221.27 833.481 258 831.002 L 225 818 L 206 806 L 245 813 L 296 838 L 228 841 Q 249.193 844.839 268 847 C 229.715 857.539 199.058 866.882 188 873 L 172 894 Z " fill="rgb(0,0,0)"/><path d=" M 559 805 L 589 802 C 578.959 914 575.645 1030.02 579 1140 Q 557.054 1141.617 534 1145 L 535 1116 Q 551.687 1114.451 564.398 1114 C 559.261 1010.258 562.471 905.935 574 811 L 559 805 Z " fill="rgb(0,0,0)"/><path d=" M 464.5 789.923 L 618.5 788.923 L 613.5 821.923 L 638.5 771.923 L 464.5 789.923 Z " fill="rgb(0,0,0)"/><g opacity="0.2"><path d=" M 255 764 L 249 735 L 300 749 L 261 744 L 267 766 L 255 764 Z " fill="rgb(0,0,0)"/></g><g opacity="0.51"><path d=" M 492 767 L 646 766 L 641 799 L 666 749 L 492 767 Z " fill="rgb(0,0,0)"/></g><g opacity="0.2"><path d=" M 518 746 L 672 745 L 667 778 L 692 728 L 518 746 Z " fill="rgb(0,0,0)"/></g><g opacity="0.5"><path d=" M 244 776 L 238 747 L 294 753 L 250 756 L 256 778 L 244 776 Z " fill="rgb(0,0,0)"/></g><path d=" M 235 788 L 229 759 L 290 766 L 241 768 L 247 790 L 235 788 Z " fill="rgb(0,0,0)"/></g></svg>