<?xml version="1.0" encoding="UTF-8" standalone="no"?><!-- Generator: Gravit.io --><svg xmlns="http://www.w3.org/2000/svg" xmlns:xlink="http://www.w3.org/1999/xlink" style="isolation:isolate" viewBox="-5.5 -22.002 662 662" width="662pt" height="662pt"><defs><clipPath id="_clipPath_1gaFxxdmw4CGGX8VK2XMzocTFW3Bcaxh"><rect x="-5.5" y="-22.002" width="662" height="662"/></clipPath></defs><g clip-path="url(#_clipPath_1gaFxxdmw4CGGX8VK2XMzocTFW3Bcaxh)"><rect x="-5.5" y="-22.002" width="662" height="662" style="fill:rgb(116,116,116)" fill-opacity="0"/><g opacity="0"><rect x="-5.5" y="-22.002" width="662" height="662" transform="matrix(1,0,0,1,0,0)" fill="rgb(235,235,235)"/></g><path d=" M 159 154.998 L 470 140.998 L 492 497.744 Q 321.964 455.32 194 450.998 L 159 154.998 Z " fill="rgb(255,153,0)"/><path d=" M 171 316.998 L 478 313.998 L 478 250.998 L 578 228.998 L 353 418.998 L 66 386.794 L 171 316.998 Z " fill="rgb(30,120,30)"/><g opacity="0.5"><path d=" M 231.577 347.459 L 166.382 397.998 L 166.382 397.998 L 170.382 399.998 L 239.647 348.027 L 316.522 353.437 L 258 404.998 L 258 404.998 L 267 404.998 L 322.923 353.887 L 424 361 L 435.66 356 L 327.859 349.376 L 360 320 L 353.34 320.998 L 321.57 348.99 L 244.662 344.264 L 277 320 L 267 320 L 236.358 343.753 L 159 339 L 154 342 L 231.577 347.459 Z  M 516 280 L 479 282 L 481 279 L 523 275 L 516 280 Z " fill-rule="evenodd" fill="rgb(255,213,149)"/></g><g opacity="0.38"><path d=" M 187.253 402.267 L 360 418.998 L 478 320.998 L 377 472 L 194 450.998 L 187.253 402.267 Z " fill="rgb(0,0,0)"/></g><path d=" M 199.189 401.137 C 200.535 414.396 201.803 427.341 203 439.998 Q 361.993 452.933 498 487.744 L 507 514.998 Q 343.774 473.487 183 460.998 C 180.562 443.843 177.701 423.97 174.002 398.727 L 199.189 401.137 L 199.189 401.137 Z " fill="rgb(0,0,0)"/><path d=" M 189.905 314.737 C 184.415 266.127 178.11 214.2 171 158.998 L 136 141.998 Q 151.493 245.494 161.964 316.781 L 189.905 314.737 L 189.905 314.737 Z " fill="rgb(0,0,0)"/><path d=" M 470 233.998 L 601 222.998 L 558 247.998 L 475 256.998 L 470 233.998 Z " fill="rgb(0,0,0)"/><path d=" M 488 122 C 485.128 220.558 491.471 351.568 507 514.998 L 488 504.998 L 483 488.744 C 467.375 347.97 457.737 235.065 454.056 149.998 C 352.456 158.829 254.114 164.506 159 166.998 L 136 141.998 C 232.748 140.214 350.091 133.558 488 122 Z " fill="rgb(0,0,0)"/><path d=" M 169 307.998 C 137.09 330.211 89.1 360.888 25 399.998 C 148.462 406.281 260.138 417.625 360 433.998 L 601 222.998 L 556 235.998 L 357 404.998 C 265.462 393.433 182.139 385.375 107 380.794 L 194 320.998 L 169 307.998 Z " fill="rgb(0,0,0)"/><path d=" M 165 308.998 L 475 308.998 L 468 330.998 L 161 325.998 L 165 308.998 Z " fill="rgb(0,0,0)"/></g></svg>