<?xml version="1.0" encoding="UTF-8" standalone="no"?><!-- Generator: Gravit.io --><svg xmlns="http://www.w3.org/2000/svg" xmlns:xlink="http://www.w3.org/1999/xlink" style="isolation:isolate" viewBox="59 105.002 662 662" width="662pt" height="662pt"><defs><clipPath id="_clipPath_3X0FZknszELvcAAlwinAobt9hfJDF73q"><rect x="59" y="105.002" width="662" height="662"/></clipPath></defs><g clip-path="url(#_clipPath_3X0FZknszELvcAAlwinAobt9hfJDF73q)"><rect x="59" y="105.002" width="662" height="662" style="fill:rgb(116,116,116)" fill-opacity="0"/><g opacity="0"><rect x="59" y="105.002" width="662" height="662" transform="matrix(1,0,0,1,0,0)" fill="rgb(235,235,235)"/></g><path d=" M 236 238 L 547 224 L 569 580.746 Q 398.964 538.321 271 534 L 236 238 Z " fill="rgb(255,153,0)"/><path d=" M 416 400 L 412 347.002 L 386 309.002 L 357 317 L 339 360.002 L 344 400 L 416 400 Z " fill="rgb(180,8,8)"/><path d=" M 248 400 L 555 397 L 555 334 L 655 312 L 430 502 L 143 469.796 L 248 400 Z " fill="rgb(30,120,30)"/><g opacity="0.5"><path d=" M 303.765 428.132 C 281.428 441.702 260.264 459.753 241 482.002 L 241 482.002 L 247.382 483 C 254.376 464.699 281.869 443.512 310.481 427.544 C 335.227 424.965 354.659 418.449 368.794 408.012 C 368.319 419.247 375.665 427.88 390.843 433.914 C 383.247 447.577 364.624 465.607 335 488 L 335 488 L 344 488 C 371.174 466.784 388.367 449.325 395.57 435.631 C 417.382 442.84 452.524 445.627 501 444.002 L 512.66 439.002 C 457.522 443.265 418.899 441.294 396.817 433.094 C 403.423 418.459 397.814 408.428 380 403.002 L 373.34 404 C 373.749 404.083 374.153 404.169 374.55 404.257 C 357.498 414.041 338.431 420.557 317.352 423.806 C 340.043 411.863 362.463 403.588 375 403.002 L 365 403.002 C 345.993 407.316 327.33 414.649 309.383 424.874 C 287.068 427.405 262.605 426.444 236 422.002 L 231 425.002 C 258.741 428.628 283 429.674 303.765 428.132 Z  M 392.233 431.21 C 398.726 417.402 392.956 408.451 374.951 404.342 C 373.205 416.121 378.968 425.078 392.233 431.21 Z " fill-rule="evenodd" fill="rgb(255,213,149)"/></g><g opacity="0.5"><path d=" M 470 466.002 C 448.29 451.988 443.967 433.331 457 410.002 L 451 410.002 C 441.082 434.352 445.759 455.362 465 473.002 L 470 466.002 Z " fill="rgb(255,213,149)"/></g><g opacity="0.5"><path d=" M 584 369.002 C 572.708 366.759 564.717 367.435 560 371.002 L 560 367.002 C 566.685 365.044 575.695 362.054 587 366.002 L 584 369.002 Z " fill="rgb(255,213,149)"/></g><g opacity="0.5"><path d=" M 611 340 C 585.399 341.928 566.743 346.272 555 353.002 L 555 356.002 C 569.995 348.507 588.005 343.85 609 342.002 L 611 340 Z " fill="rgb(255,213,149)"/></g><g opacity="0.5"><path d=" M 591 334 Q 570.705 346.1 555 347.002 L 555 344.002 Q 569.393 343.85 588 335.002 L 591 334 Z " fill="rgb(255,213,149)"/></g><g opacity="0.5"><path d=" M 187 450.002 C 283.9 458.245 286.58 439.111 337 443.002 C 380.951 446.393 394.156 474.789 461 477.002 L 457 481 C 374.429 475.028 392.883 452.182 333 447.002 C 293.628 443.596 254.749 459.206 184 452.002 L 187 450.002 Z " fill="rgb(255,213,149)"/></g><g opacity="0.5"><path d=" M 304 408.012 C 278.978 427.141 248.655 435.148 221 432.002 L 218 436.002 C 251.033 435.908 282.043 426.585 311 408.002 L 304 408.012 Z " fill="rgb(255,213,149)"/></g><g opacity="0.38"><path d=" M 264.253 485.269 L 437 502 L 555 404 L 454 555.002 L 271 534 L 264.253 485.269 Z " fill="rgb(0,0,0)"/></g><path d=" M 276.189 484.139 C 277.535 497.398 278.803 510.342 280 523 Q 438.993 535.934 575 570.746 L 584 598 Q 420.774 556.489 260 544 C 257.562 526.845 254.701 506.971 251.002 481.729 L 276.189 484.139 L 276.189 484.139 Z " fill="rgb(0,0,0)"/><path d=" M 266.905 397.739 C 261.415 349.129 255.11 297.202 248 242 L 213 225 Q 228.493 328.495 238.964 399.783 L 266.905 397.739 L 266.905 397.739 Z " fill="rgb(0,0,0)"/><path d=" M 547 317 L 678 306 L 635 331 L 552 340 L 547 317 Z " fill="rgb(0,0,0)"/><path d=" M 565 205.002 C 562.128 303.56 568.471 434.57 584 598 L 565 588 L 560 571.746 C 544.375 430.972 534.737 318.067 531.056 233 C 429.456 241.831 331.114 247.508 236 250 L 213 225 C 309.748 223.216 427.091 216.56 565 205.002 Z " fill="rgb(0,0,0)"/><path d=" M 246 391 C 214.09 413.213 166.1 443.89 102 483 C 225.462 489.283 337.138 500.626 437 517 L 678 306 L 633 319 L 434 488 C 342.462 476.435 259.139 468.377 184 463.796 L 271 404 L 246 391 Z " fill="rgb(0,0,0)"/><path d=" M 339 400 C 332.51 374.437 335.883 290.677 381 300.002 C 406.461 305.264 424.022 346.912 423 400 L 407 400 C 415.54 356.201 401.228 327.259 381 319 C 356.093 308.83 340.38 353.638 350 403.002 L 339 400 Z " fill="rgb(75,1,1)"/><path d=" M 242 392 L 552 392 L 545 414 L 238 409 L 242 392 Z " fill="rgb(0,0,0)"/></g></svg>