<svg
 xmlns="http://www.w3.org/2000/svg"
 xmlns:xlink="http://www.w3.org/1999/xlink"
 style="isolation:isolate"
 viewBox="-41.5 -48 800 743"
 width="800pt"
 height="743pt"
>

    <g id="icon">
        
    <path d=" M 164 269 C 267.52 246.369 347.196 222.713 403 198 L 649 152 C 654.552 245.081 654.562 357.091 649 488 L 508 584 C 414.429 565.37 283.718 548.468 214.41 552.218 L 164 269 Z " fill="rgb(255,165,0)"/>
    
    <path d=" M 497.581 243 C 391.385 239.348 275.814 248.025 164 269 L 204.471 496.376 C 158.63 518.484 98.816 540.036 25 561 C 62.392 570.229 344.876 591.597 510 583 C 501.036 471.726 495.573 334.403 497.581 243 Z " fill="rgba(0,0,0,0.38)"/>
    <path d=" M 210 571 C 194.643 464.807 173.986 353.151 148 236 L 170 261 C 195.952 361.762 213.629 457.772 223 549 L 210 571 Z " fill="rgb(0,0,0)"/>
    <path d=" M 661 152 C 664.565 243.889 662.908 354.566 656 484 L 643 495 C 647.919 366.101 645.262 259.444 635 167 L 661 152 Z " fill="rgb(0,0,0)"/>
    <path d=" M 164 426 L 375 322 L 367 336 L 157 436 L 164 426 Z " fill="rgb(0,0,0)"/>
    <path d=" M 147.5 473 L 358.5 369 L 350.5 383 L 140.5 483 L 147.5 473 Z " fill="rgb(0,0,0)"/>
    <path d=" M 214.41 548 L 110 559 C 254.854 555.383 400.907 571.567 512 586.218 C 557.073 588.575 602.428 587.87 643 588 L 514 581 L 508 576 C 447.107 561.99 325.41 543.397 219 544 L 214.41 548 Z " fill="rgb(0,0,0)"/>
    <path d=" M 491 209 C 485.457 345.895 488.467 493.238 500 583 L 508 584 L 520 620 L 516 583 C 505.144 480.884 504.821 344.894 505 243 L 491 209 Z " fill="rgb(0,0,0)"/>
    <path d=" M 497.581 252 L 442 275 C 506.532 245.313 624.571 173.048 686 122 L 661 152 L 656 167 C 614.584 203.754 555.281 233.45 500 252 L 497.581 252 Z " fill="rgb(0,0,0)"/>
    <path d=" M 392 194 C 475.862 171.623 566.538 153.966 664 141 L 656 167 C 570.266 175.742 479.61 189.752 384 209 L 392 194 Z " fill="rgb(0,0,0)"/>
    <path d=" M 164 278 C 286.199 255.196 397.414 246.55 497.581 252 L 553 243 L 505.041 236 C 391.945 227.533 278.661 236.907 165.066 264 L 164 278 Z " fill="rgb(0,0,0)"/>
    <path d=" M 468 600.254 L 520 584 Q 527.298 584.322 532.765 586.218 C 583.48 548.468 665.461 485.177 726 459 L 694.559 468.492 L 713.978 459.949 L 698.258 463.746 L 701.957 460.898 C 641.07 485.972 546.858 548.468 468 600.254 Z " fill="rgb(0,0,0)"/>
    <path d=" M 138 269 C 233.509 249.225 318.186 224.235 392 194 L 416 202 C 345.615 233.487 269.959 255.831 189 269 L 138 269 Z " fill="rgb(0,0,0)"/>
    </g>
    
    </svg>